<svg xmlns="http://www.w3.org/2000/svg" viewBox="0 0 349.5 143.8"><g fill="none" stroke="#00AEEF" stroke-miterlimit="10"><path d="M0 65h2.5"/><path d="M7.5 65h335.6" stroke-dasharray="4.97 4.97"/><path d="M345.6 65h2.5"/></g><g fill="none" stroke="#00AEEF" stroke-miterlimit="10"><path d="M174 6v2.5"/><path d="M174 13.5v117.6" stroke-dasharray="5 5"/><path d="M174 133.6v2.5"/></g><path fill="#414042" d="M79.6 61.7l-2.1-5.3h-.3c-1.8 2.3-3.7 3.8-5.6 4.7-1.9.9-4.4 1.3-7.5 1.3-3.8 0-6.7-1.1-8.9-3.2C53 57 51.9 54 51.9 50c0-4.2 1.5-7.2 4.4-9.2 2.9-2 7.3-3.1 13.2-3.3l6.8-.2v-1.7c0-4-2-6-6.1-6-3.1 0-6.8.9-11.1 2.8l-3.6-7.2c4.5-2.4 9.5-3.6 15-3.6 5.3 0 9.3 1.1 12.1 3.4 2.8 2.3 4.2 5.8 4.2 10.5v26.2h-7.2zm-3.1-18.2l-4.1.1c-3.1.1-5.4.7-7 1.7-1.5 1-2.3 2.6-2.3 4.7 0 3 1.7 4.5 5.2 4.5 2.5 0 4.5-.7 6-2.1 1.5-1.4 2.2-3.3 2.2-5.7v-3.2zM120 21.7c4.6 0 8.3 1.8 10.9 5.4 2.6 3.6 3.9 8.6 3.9 14.9 0 6.5-1.4 11.5-4.1 15.1s-6.4 5.3-11.1 5.3c-4.6 0-8.2-1.7-10.9-5h-.7l-1.8 4.3H98V7h10.7v12.7c0 1.6-.1 4.2-.4 7.8h.4c2.7-3.9 6.4-5.8 11.3-5.8zm-3.4 8.5c-2.6 0-4.6.8-5.8 2.4-1.2 1.6-1.9 4.3-1.9 8.1v1.2c0 4.2.6 7.2 1.9 9.1 1.3 1.8 3.2 2.7 6 2.7 2.2 0 4-1 5.3-3s2-5 2-8.8-.7-6.8-2-8.7c-1.5-2-3.3-3-5.5-3zM171.1 50c0 4-1.4 7.1-4.2 9.2-2.8 2.1-7 3.2-12.6 3.2-2.9 0-5.3-.2-7.3-.6-2-.4-3.9-1-5.7-1.7v-8.9c2 .9 4.2 1.7 6.7 2.4s4.7.9 6.6.9c3.9 0 5.8-1.1 5.8-3.4 0-.8-.3-1.5-.8-2.1-.5-.5-1.4-1.1-2.7-1.8s-3-1.4-5.1-2.3c-3-1.3-5.2-2.4-6.7-3.5-1.4-1.1-2.4-2.3-3.1-3.7-.6-1.4-1-3.1-1-5.2 0-3.5 1.4-6.2 4.1-8.1 2.7-1.9 6.5-2.9 11.5-2.9 4.7 0 9.3 1 13.8 3.1l-3.2 7.7c-2-.8-3.8-1.5-5.5-2.1-1.7-.5-3.5-.8-5.2-.8-3.2 0-4.7.9-4.7 2.6 0 1 .5 1.8 1.5 2.5s3.3 1.7 6.7 3.1c3.1 1.2 5.3 2.4 6.8 3.5 1.4 1.1 2.5 2.3 3.2 3.7.8 1.6 1.1 3.3 1.1 5.2zm33.5 72.7l-2.1-5.3h-.3c-1.8 2.3-3.7 3.8-5.6 4.7s-4.4 1.3-7.5 1.3c-3.8 0-6.7-1.1-8.9-3.2s-3.3-5.2-3.3-9.2c0-4.2 1.5-7.2 4.4-9.2s7.3-3.1 13.2-3.3l6.8-.2v-1.7c0-4-2-6-6.1-6-3.1 0-6.8.9-11.1 2.8l-3.6-7.2c4.5-2.4 9.5-3.6 15-3.6 5.3 0 9.3 1.1 12.1 3.4s4.2 5.8 4.2 10.5v26.2h-7.2zm-3.1-18.2l-4.1.1c-3.1.1-5.4.7-7 1.7s-2.3 2.6-2.3 4.7c0 3 1.7 4.5 5.2 4.5 2.5 0 4.5-.7 6-2.1s2.2-3.3 2.2-5.7v-3.2zm32.4 18.2h-10.7V68h10.7v54.7zm10.8-49.5c0-3.5 1.9-5.2 5.8-5.2s5.8 1.7 5.8 5.2c0 1.7-.5 3-1.5 3.9s-2.4 1.4-4.4 1.4c-3.8 0-5.7-1.7-5.7-5.3zm11.2 49.5h-10.7V83.4h10.7v39.3zm45.4-39.3v5.4l-6.2 1.6c1.1 1.8 1.7 3.7 1.7 5.9 0 4.2-1.5 7.5-4.4 9.9s-7 3.5-12.3 3.5l-1.9-.1-1.6-.2c-1.1.8-1.7 1.8-1.7 2.8 0 1.5 2 2.3 5.9 2.3h6.7c4.3 0 7.6.9 9.9 2.8s3.4 4.6 3.4 8.2c0 4.6-1.9 8.2-5.7 10.7s-9.3 3.8-16.5 3.8c-5.5 0-9.7-1-12.6-2.9s-4.3-4.6-4.3-8c0-2.4.7-4.3 2.2-5.9s3.6-2.7 6.5-3.4c-1.1-.5-2.1-1.2-2.9-2.3s-1.2-2.2-1.2-3.4c0-1.5.4-2.7 1.3-3.7s2.1-2 3.8-2.9c-2.1-.9-3.7-2.3-4.9-4.3s-1.8-4.3-1.8-7c0-4.3 1.4-7.6 4.2-9.9s6.8-3.5 12-3.5c1.1 0 2.4.1 3.9.3s2.5.3 2.9.4h13.6zM271 128.3c0 1.5.7 2.6 2.1 3.5s3.4 1.3 6 1.3c3.8 0 6.9-.5 9-1.6s3.3-2.5 3.3-4.3c0-1.5-.6-2.5-1.9-3.1s-3.3-.8-6-.8h-5.6c-2 0-3.6.5-4.9 1.4s-2 2-2 3.6zm3.9-32c0 2.1.5 3.8 1.5 5.1s2.5 1.9 4.4 1.9c2 0 3.5-.6 4.4-1.9s1.4-2.9 1.4-5.1c0-4.7-1.9-7.1-5.8-7.1-4 0-5.9 2.3-5.9 7.1zm69.2 26.4h-10.7v-23c0-2.8-.5-5-1.5-6.4s-2.6-2.1-4.8-2.1c-3 0-5.2 1-6.5 3s-2 5.3-2 10v18.5h-10.7V83.4h8.2l1.4 5h.6c1.2-1.9 2.8-3.3 4.9-4.3s4.5-1.5 7.2-1.5c4.6 0 8 1.2 10.4 3.7s3.6 6 3.6 10.7v25.7z"/></svg>